# xmcd
#
# Track frame offsets:
#	150
#	4675
#	12837
#	31187
#	50492
#	70337
#	75630
#	93932
#	113342
#	132815
#	136475
#	156142
#	175713
#	199773
#	217048
#	235376
#	258057
#	277697
#	285775
#
# Disc length: 4134 seconds
#
# Revision: 0
# Processed by: cddbd v1.5.1PL2 Copyright (c) Steve Scherf et al.
# Submitted via: EasyCDDAExtractor 8.2.1.1
#
DISCID=ec102413
DTITLE=112 - Room 112
DYEAR=1998
DGENRE=R&B
TTITLE0=Room 112 (Intro)
TTITLE1=So Much Love (Interlude)
TTITLE2=Be With You
TTITLE3=Love Me (feat. Mase)
TTITLE4=The Only One
TTITLE5=Anywhere (Interlude)
TTITLE6=Anywhere
TTITLE7=Love You Like I Did
TTITLE8=For Awhile (feat. Faith Evans)
TTITLE9=Don't Go Away (Interlude)
TTITLE10=Stay With Me
TTITLE11=Whatcha Gonna Do
TTITLE12=Crazy Over You
TTITLE13=Funny Feelings
TTITLE14=Never Mind
TTITLE15=Someone To Hold
TTITLE16=All My Love
TTITLE17=You Are The Only One (Interlude)
TTITLE18=Your Letter
EXTD=YEAR: 1998\n
EXTT0=
EXTT1=
EXTT2=
EXTT3=
EXTT4=
EXTT5=
EXTT6=
EXTT7=
EXTT8=
EXTT9=
EXTT10=
EXTT11=
EXTT12=
EXTT13=
EXTT14=
EXTT15=
EXTT16=
EXTT17=
EXTT18=
PLAYORDER=
